<svg xmlns="http://www.w3.org/2000/svg" viewBox="0 0 97.14 50"><defs><style>.cls-1{fill:#fff;}</style></defs><g id="Layer_2" data-name="Layer 2"><g id="Layer_1-2" data-name="Layer 1"><path class="cls-1" d="M59.18,35.6c-1,3-5,4.64-8.13,3.35a6.19,6.19,0,0,1-3.45-3.31c.2-.28.5-.22.78-.22h10A1.07,1.07,0,0,1,59.18,35.6Z"/><path class="cls-1" d="M59.15,34.5c-1-2.44-2-4.9-3-7.34a43.19,43.19,0,0,0-2.68-6.08,1.4,1.4,0,0,0-.44.74c-1.65,4-3.31,7.94-4.94,11.91-.2.48-.66.88-.51,1.49a1.3,1.3,0,0,0,1,.26h9.53a1.41,1.41,0,0,0,1-.24A1.18,1.18,0,0,0,59.15,34.5Zm-6.67,0c-1.08,0-2.16,0-3.24,0-.62,0-.73-.12-.49-.71,1-2.5,2-5,3-7.51.35-.89.71-1.77,1.07-2.66l.21.05q0,5.16,0,10.32C53.06,34.46,52.85,34.52,52.48,34.51Zm1.79,0c-.33,0-.53-.08-.53-.47,0-3.45,0-6.91,0-10.36l.22-.05c1.44,3.57,2.87,7.15,4.37,10.88Z"/><path class="cls-1" d="M59.18,35.6l-11.58,0,0-.42,11.62,0Z"/><path class="cls-1" d="M35.4,44.11C31,40.05,29,35.27,29.52,29.53A16.43,16.43,0,0,1,33,20.59a11.93,11.93,0,0,1,16.08-3.12,19.28,19.28,0,0,1,3.07,2.16c.37.3.72.63,1.12,1-.33.17-.54,0-.75-.07a18.81,18.81,0,0,0-10.07-.93A12.69,12.69,0,0,0,32.36,30.74,20.38,20.38,0,0,0,35,43.13c.1.2.21.4.32.6C35.33,43.77,35.33,43.83,35.4,44.11Z"/><path class="cls-1" d="M37,46.41a31.17,31.17,0,0,0,2.43-5.53c1.45-4.66,1.59-9.27-.54-13.8a13.29,13.29,0,0,0-2.11-3.19c-.36-.39-.33-.62,0-1a12.46,12.46,0,0,1,2.51-1.76c.47-.26.75-.06,1,.32a19.45,19.45,0,0,1,3.12,8.4A18.58,18.58,0,0,1,39.52,44,9.12,9.12,0,0,1,37,46.41Z"/><path class="cls-1" d="M35.91,17.21a15.15,15.15,0,0,0-3.25,3.08.5.5,0,0,1-.68.14c-4.61-1.93-9.21-1.44-13.8.07l-.57.18a.44.44,0,0,1-.16,0C21.45,16.08,29.44,13,35.91,17.21Z"/><path class="cls-1" d="M36,13.23a3.83,3.83,0,0,1-3.85-3.84,3.84,3.84,0,0,1,7.67,0A3.8,3.8,0,0,1,36,13.23Z"/><path class="cls-1" d="M31.45,3.58c-.3.34,0,.79-.24,1.18L28.64,3.3A49.44,49.44,0,0,0,33.52.82a4.08,4.08,0,0,1,5,0A41,41,0,0,0,42.66,3c.27.14.35.23.33.66a19.89,19.89,0,0,0,.08,4.75c.13.62.22,1.27.33,1.9s-.45.31-.71.36c-.63.12-.83,0-.63-.76A20.66,20.66,0,0,0,42.44,4c-.69.1-1.17.61-1.79.81-.26-.35.16-.95-.41-1.18a14.11,14.11,0,0,1-2.15-.43A13.09,13.09,0,0,0,33,3.37C32.45,3.46,32,3.52,31.45,3.58Z"/><path class="cls-1" d="M39.85,3.82a14.62,14.62,0,0,0-8,0,11,11,0,0,0,0,3.39,2.08,2.08,0,0,0,.32-.27,4.71,4.71,0,0,1,7.5-.21c.1.11.15.32.43.22,0-.58,0-1.17,0-1.76S40.3,4.2,39.85,3.82Z"/><path class="cls-1" d="M42.79,40.54h0L40.38,44c-.58.84-1.13,1.71-1.75,2.53-1,1.37-1.7,1.39-2.82.07-.63-.74-1.19-1.52-1.78-2.29l-3.46-4.58a.42.42,0,0,0,0,.47c1,2.06,1.86,4.15,2.92,6.17a11.92,11.92,0,0,0,2,3,1.89,1.89,0,0,0,2.88.09,8.07,8.07,0,0,0,1.58-2,42,42,0,0,0,3-6.48,2.15,2.15,0,0,0,.42-1.15A1.82,1.82,0,0,0,42.79,40.54Z"/><path class="cls-1" d="M22.93,35.6c-1,3-5,4.64-8.12,3.35a6.21,6.21,0,0,1-3.46-3.31c.2-.28.51-.22.78-.22h10A1.07,1.07,0,0,1,22.93,35.6Z"/><path class="cls-1" d="M22.9,34.5c-1-2.44-2-4.9-3-7.34a43.19,43.19,0,0,0-2.68-6.08,1.54,1.54,0,0,0-.44.74c-1.65,4-3.31,7.94-4.94,11.91-.2.48-.65.88-.5,1.49a1.29,1.29,0,0,0,1,.26h9.52a1.39,1.39,0,0,0,1.05-.24A1.05,1.05,0,0,0,22.9,34.5Zm-6.66,0c-1.08,0-2.17,0-3.25,0-.61,0-.73-.12-.49-.71,1-2.5,2-5,3-7.51l1.08-2.66.21.05c0,3.44,0,6.88,0,10.32C16.82,34.46,16.6,34.52,16.24,34.51Zm1.79,0c-.34,0-.53-.08-.53-.47,0-3.45,0-6.91,0-10.36l.23-.05L22.1,34.51Z"/><path class="cls-1" d="M22.93,35.6l-11.58,0,0-.42,11.61,0Z"/><path class="cls-1" d="M0,13.51v-.29H1V5.92H0V5.63H6.58l.1,2.87H6.4V8.08c0-1-.67-2.16-2.67-2.16H3V9.53h.25a2.46,2.46,0,0,0,.64-.07c.57-.15.84-.73.89-1.51H5v3.43H4.75c0-.82-.34-1.39-.89-1.52a3.26,3.26,0,0,0-.64,0H3v3.41H4.06v.29Z"/><path class="cls-1" d="M10.27,13.22h1v.29h-4v-.29h1V5.92h-1V5.63h4v.29h-1Z"/><path class="cls-1" d="M20.7,5.63v.29h0c-.79,0-1.38.64-1.38,3v4.58H18.12L13.47,6.78v3.43c0,2.31.63,3,1.53,3h0v.29H11.75v-.29h0c.8,0,1.38-.65,1.38-3V6.34l-.3-.42h-1V5.63h3.18L19,11.28V8.93c0-2.32-.63-3-1.52-3h-.05V5.63Z"/><path class="cls-1" d="M29.3,9.61c0,2.08-1.33,3.9-4.2,3.9H21.19v-.29h1V5.92h-1V5.63h3.66C27.8,5.63,29.3,7.39,29.3,9.61ZM24.16,5.92v7.3h.9c1.69,0,2.13-1.48,2.13-3.58s-.55-3.72-2.33-3.72Z"/><path class="cls-1" d="M52.44,46.12l-.15,3h-6.8v-.29h1v-7.3h-1V41.2h4v.29h-1v7.3h.91c2,0,2.7-1.18,2.76-2.27l0-.41Z"/><path class="cls-1" d="M61.31,48.79v.29H57.59v-.29h.85l-.92-2.54H55.21A4.49,4.49,0,0,0,55,47.5c0,1,.5,1.29,1.13,1.29h0v.29H53v-.29h0c.69,0,1.26-.81,1.85-2.47l1.9-5.27h1l2.84,7.74ZM57.41,46,56.35,43l-1,2.7c0,.07-.05.15-.08.22Z"/><path class="cls-1" d="M72.39,41.2v.29h0c-.59,0-1.23.62-2,2.93l-1.53,4.74h-.92l-1.83-5.45-1.76,5.45h-.91l-2.53-7.67H60.1V41.2h3.68v.29h-.86L64.71,47l1.22-3.8-.59-1.75h-.67V41.2h3.57v.29h-.86l1.84,5.57.85-2.66a5,5,0,0,0,.27-1.49c0-1-.51-1.42-1.08-1.42h-.08V41.2Z"/><path class="cls-1" d="M80.75,41.49c-.6,0-1.4.86-2.17,2.32l-.92,1.74v3.24h1v.29h-4v-.29h1v-3l-2.22-4.26h-.78V41.2h3.75v.29h-.84l1.93,3.73L78.15,44a3.21,3.21,0,0,0,.5-1.57.88.88,0,0,0-.87-.95h-.16V41.2h3.2v.29Z"/><path class="cls-1" d="M88.09,46.12l-.15,3H81.23v-.29h1v-7.3h-1V41.2h6.62l.1,2.86h-.27l0-.41c-.06-1-.69-2.17-2.72-2.17H84.2V45h.25a2.46,2.46,0,0,0,.64-.07c.57-.16.84-.73.89-1.51h.28v3.42H86c0-.81-.33-1.39-.89-1.51a4.05,4.05,0,0,0-.64-.05H84.2v3.56H85c2,0,2.69-1.19,2.75-2.26l0-.42Z"/><path class="cls-1" d="M97.14,47.54c0,1.18-.47,1.69-1.45,1.69-1.65,0-1.88-1.39-2-2.37-.15-1.26-.49-1.52-1.82-1.58v3.51h1v.29h-4v-.29h1v-7.3h-1V41.2h3.75c2.09,0,3.27.61,3.27,2,0,1.58-1.63,2-3.16,2,0,0,0,0,0,0,2.47.1,3,.77,3.12,2.37,0,.5.07,1.15.46,1.15s.5-.46.52-1.2ZM92.22,45a2.05,2.05,0,0,0,1-.2,1.7,1.7,0,0,0,.61-1.55c0-1.39-.75-1.76-1.52-1.76h-.42V45Z"/></g></g></svg>